<?xml version="1.0" encoding="UTF-8"?>
<svg version="1.1" xmlns="http://www.w3.org/2000/svg" width="106" height="104">
<path d="M0 0 C10.74778653 7.64533268 18.11032593 17.63811556 21.2734375 30.6171875 C23.48999154 44.87810503 21.3758429 58.03363719 13.5546875 70.31640625 C5.64882937 80.89535166 -5.27863285 87.83582739 -18.015625 91.2265625 C-32.88288883 93.36881954 -47.54036888 91.7451926 -60.3203125 83.42578125 C-71.25170485 75.20949122 -79.38178021 64.29666638 -81.7265625 50.6171875 C-82.00320126 47.6518611 -82.06138153 44.71922773 -82.0390625 41.7421875 C-82.03342285 40.95062256 -82.0277832 40.15905762 -82.02197266 39.34350586 C-81.89746151 33.33800037 -81.20587984 28.14360477 -78.7265625 22.6171875 C-78.15808594 21.30234375 -78.15808594 21.30234375 -77.578125 19.9609375 C-71.21467851 6.86621524 -61.02867167 -1.22730578 -47.7265625 -6.3828125 C-31.80459297 -11.55316806 -13.94957631 -9.07399624 0 0 Z M-63.46484375 11.16015625 C-66.97160512 14.96974676 -69.47107638 18.97222598 -71.7265625 23.6171875 C-72.06558594 24.2771875 -72.40460938 24.9371875 -72.75390625 25.6171875 C-76.58894026 34.665747 -76.20067042 47.48609956 -73.1015625 56.6796875 C-68.04074708 68.2119986 -60.09599191 77.28093878 -48.5234375 82.58203125 C-35.13720766 87.53643196 -23.93316739 87.55762602 -10.8046875 82.12890625 C0.97652855 76.3429537 8.81278482 66.81428467 13.2734375 54.6171875 C17.01599408 42.53184854 15.2992673 31.09146756 9.5859375 19.8671875 C3.32814369 9.18127423 -6.47949024 1.63217626 -18.3984375 -1.84765625 C-35.28682981 -5.72971958 -51.03021707 -0.61076979 -63.46484375 11.16015625 Z " fill="#2D76FF" transform="translate(83.7265625,10.3828125)"/>
<path d="M0 0 C0.66 0 1.32 0 2 0 C3.59716797 2.34472656 3.59716797 2.34472656 5.4921875 5.640625 C6.00588142 6.52596169 6.00588142 6.52596169 6.529953 7.42918396 C7.65178675 9.36560426 8.76336658 11.30770917 9.875 13.25 C11.02504559 15.24208318 12.17757185 17.23271554 13.33039856 19.22319031 C14.1039997 20.55906755 14.87677271 21.8954247 15.64872742 23.23225403 C19.52951875 29.94371105 23.53736525 36.57681552 27.59521484 43.18261719 C28.04977051 43.9305957 28.50432617 44.67857422 28.97265625 45.44921875 C29.36718994 46.09205811 29.76172363 46.73489746 30.16821289 47.3972168 C31 49 31 49 31 51 C25.94395679 51.69142471 25.94395679 51.69142471 23 51 C20.54258922 48.6927977 19.08513431 45.95094186 17.5 43 C17.05914062 42.236875 16.61828125 41.47375 16.1640625 40.6875 C15.08265013 38.80678284 14.03765774 36.90520765 13 35 C12.38133057 35.23058105 11.76266113 35.46116211 11.12524414 35.69873047 C2.49207162 38.86066242 -3.52616327 38.15823945 -12 35 C-12.6290625 36.155 -13.258125 37.31 -13.90625 38.5 C-14.76926812 40.00090108 -15.63393866 41.50085288 -16.5 43 C-16.90992188 43.763125 -17.31984375 44.52625 -17.7421875 45.3125 C-19.0273985 47.49346411 -20.15223728 49.26518121 -22 51 C-24.95600645 51.69425472 -26.93027814 51.41979102 -30 51 C-26.1702175 42.96031055 -21.75632305 35.32511184 -17.1875 27.6875 C-16.51396484 26.55376953 -15.84042969 25.42003906 -15.14648438 24.25195312 C-1.74477333 1.74477333 -1.74477333 1.74477333 0 0 Z M0 14 C-1.10836423 15.88316159 -1.10836423 15.88316159 -2 18 C-1.67 18.66 -1.34 19.32 -1 20 C0.32 19.67 1.64 19.34 3 19 C2.65213292 17.02463255 2.65213292 17.02463255 2 15 C1.34 14.67 0.68 14.34 0 14 Z M-6 24 C-6.66 24.66 -7.32 25.32 -8 26 C-8.06754834 28.06599083 -8.06754834 28.06599083 -7 30 C-3.26731431 32.37534544 -0.0615746 32.0832669 4.12890625 31.42578125 C6.30135352 30.93142477 8.11015688 30.18115195 10 29 C9.34 27.35 8.68 25.7 8 24 C7.484375 24.165 6.96875 24.33 6.4375 24.5 C2.12290849 25.38504441 -1.82126148 25.39291284 -6 24 Z " fill="#2D76FF" transform="translate(53,21)"/>
</svg>
